<?xml version="1.0" encoding="UTF-8" standalone="no"?>
<!DOCTYPE svg PUBLIC "-//W3C//DTD SVG 1.1//EN"
 "http://www.w3.org/Graphics/SVG/1.1/DTD/svg11.dtd">
<!-- Generated by graphviz version 2.43.20190912.0211 (20190912.0211)
 -->
<!-- Title: %3 Pages: 1 -->
<svg width="304pt" height="188pt"
 viewBox="0.00 0.00 303.65 188.00" xmlns="http://www.w3.org/2000/svg" xmlns:xlink="http://www.w3.org/1999/xlink">
<g id="graph0" class="graph" transform="scale(1 1) rotate(0) translate(4 184)">
<title>%3</title>
<polygon fill="white" stroke="transparent" points="-4,4 -4,-184 299.65,-184 299.65,4 -4,4"/>
<!-- Root -->
<g id="node1" class="node">
<title>Root</title>
<ellipse fill="none" stroke="black" cx="135" cy="-162" rx="32.49" ry="18"/>
<text text-anchor="middle" x="135" y="-158.3" font-family="Times,serif" font-size="14.00">Root</text>
</g>
<!-- 1 -->
<g id="node2" class="node">
<title>1</title>
<ellipse fill="none" stroke="black" cx="27" cy="-90" rx="27" ry="18"/>
<text text-anchor="middle" x="27" y="-86.3" font-family="Times,serif" font-size="14.00">1</text>
</g>
<!-- Root&#45;&gt;1 -->
<g id="edge1" class="edge">
<title>Root&#45;&gt;1</title>
<path fill="none" stroke="black" d="M114.69,-147.83C97.6,-136.76 73.01,-120.82 54.22,-108.64"/>
<polygon fill="black" stroke="black" points="56.07,-105.67 45.78,-103.17 52.27,-111.55 56.07,-105.67"/>
</g>
<!-- 2 -->
<g id="node3" class="node">
<title>2</title>
<ellipse fill="none" stroke="black" cx="99" cy="-90" rx="27" ry="18"/>
<text text-anchor="middle" x="99" y="-86.3" font-family="Times,serif" font-size="14.00">2</text>
</g>
<!-- Root&#45;&gt;2 -->
<g id="edge2" class="edge">
<title>Root&#45;&gt;2</title>
<path fill="none" stroke="black" d="M126.47,-144.41C122.16,-136.04 116.85,-125.71 112.05,-116.37"/>
<polygon fill="black" stroke="black" points="115.16,-114.76 107.47,-107.47 108.93,-117.96 115.16,-114.76"/>
</g>
<!-- 3 -->
<g id="node4" class="node">
<title>3</title>
<ellipse fill="none" stroke="black" cx="171" cy="-90" rx="27" ry="18"/>
<text text-anchor="middle" x="171" y="-86.3" font-family="Times,serif" font-size="14.00">3</text>
</g>
<!-- Root&#45;&gt;3 -->
<g id="edge3" class="edge">
<title>Root&#45;&gt;3</title>
<path fill="none" stroke="black" d="M143.53,-144.41C147.84,-136.04 153.15,-125.71 157.95,-116.37"/>
<polygon fill="black" stroke="black" points="161.07,-117.96 162.53,-107.47 154.84,-114.76 161.07,-117.96"/>
</g>
<!-- Leaf 3 -->
<g id="node5" class="node">
<title>Leaf 3</title>
<ellipse fill="none" stroke="black" cx="256" cy="-90" rx="39.79" ry="18"/>
<text text-anchor="middle" x="256" y="-86.3" font-family="Times,serif" font-size="14.00">Leaf 3</text>
</g>
<!-- Root&#45;&gt;Leaf 3 -->
<g id="edge4" class="edge">
<title>Root&#45;&gt;Leaf 3</title>
<path fill="none" stroke="black" d="M156.63,-148.49C175.31,-137.68 202.56,-121.92 223.8,-109.63"/>
<polygon fill="black" stroke="black" points="225.59,-112.64 232.49,-104.6 222.08,-106.58 225.59,-112.64"/>
</g>
<!-- Leaf 1 -->
<g id="node6" class="node">
<title>Leaf 1</title>
<ellipse fill="none" stroke="black" cx="50" cy="-18" rx="39.79" ry="18"/>
<text text-anchor="middle" x="50" y="-14.3" font-family="Times,serif" font-size="14.00">Leaf 1</text>
</g>
<!-- 1&#45;&gt;Leaf 1 -->
<g id="edge5" class="edge">
<title>1&#45;&gt;Leaf 1</title>
<path fill="none" stroke="black" d="M32.57,-72.05C35.16,-64.18 38.3,-54.62 41.2,-45.79"/>
<polygon fill="black" stroke="black" points="44.53,-46.87 44.32,-36.28 37.88,-44.68 44.53,-46.87"/>
</g>
<!-- Leaf 2 -->
<g id="node7" class="node">
<title>Leaf 2</title>
<ellipse fill="none" stroke="black" cx="147" cy="-18" rx="39.79" ry="18"/>
<text text-anchor="middle" x="147" y="-14.3" font-family="Times,serif" font-size="14.00">Leaf 2</text>
</g>
<!-- 1&#45;&gt;Leaf 2 -->
<g id="edge6" class="edge">
<title>1&#45;&gt;Leaf 2</title>
<path fill="none" stroke="black" d="M46.82,-77.44C65.22,-66.7 92.97,-50.52 114.59,-37.9"/>
<polygon fill="black" stroke="black" points="116.57,-40.8 123.44,-32.74 113.04,-34.76 116.57,-40.8"/>
</g>
<!-- 2&#45;&gt;Leaf 1 -->
<g id="edge7" class="edge">
<title>2&#45;&gt;Leaf 1</title>
<path fill="none" stroke="black" d="M88.13,-73.46C82.02,-64.74 74.26,-53.65 67.33,-43.76"/>
<polygon fill="black" stroke="black" points="70.13,-41.65 61.53,-35.47 64.39,-45.67 70.13,-41.65"/>
</g>
<!-- 2&#45;&gt;Leaf 2 -->
<g id="edge8" class="edge">
<title>2&#45;&gt;Leaf 2</title>
<path fill="none" stroke="black" d="M109.89,-73.12C115.82,-64.47 123.29,-53.58 129.97,-43.83"/>
<polygon fill="black" stroke="black" points="133.05,-45.53 135.82,-35.31 127.28,-41.57 133.05,-45.53"/>
</g>
<!-- 3&#45;&gt;Leaf 1 -->
<g id="edge9" class="edge">
<title>3&#45;&gt;Leaf 1</title>
<path fill="none" stroke="black" d="M151.29,-77.6C132.57,-66.77 104.11,-50.3 82.11,-37.58"/>
<polygon fill="black" stroke="black" points="83.84,-34.54 73.43,-32.56 80.34,-40.59 83.84,-34.54"/>
</g>
<!-- 3&#45;&gt;Leaf 2 -->
<g id="edge10" class="edge">
<title>3&#45;&gt;Leaf 2</title>
<path fill="none" stroke="black" d="M165.19,-72.05C162.49,-64.18 159.21,-54.62 156.19,-45.79"/>
<polygon fill="black" stroke="black" points="159.48,-44.6 152.92,-36.28 152.86,-46.87 159.48,-44.6"/>
</g>
</g>
</svg>
